<svg width="1298" height="430" viewBox="0 0 1298 430" fill="none" xmlns="http://www.w3.org/2000/svg">
<path d="M0 122.773H82.9299C103.344 122.773 119.419 130.615 129.626 144.872C137.791 156.277 141.874 170.179 141.874 187.287V188.001C141.874 216.158 131.156 231.84 118.398 241.821C139.067 252.87 151.825 269.622 151.825 303.127V303.84C151.825 349.463 125.288 372.274 84.9712 372.274H0V122.773ZM102.833 196.555C102.833 180.158 93.6467 170.891 77.061 170.891H38.2753V223.643H74.5093C91.8606 223.643 102.833 215.802 102.833 197.267V196.555ZM83.6953 269.266H38.2753V324.156H84.9712C102.323 324.156 112.784 315.602 112.784 297.067V296.354C112.784 279.602 103.853 269.266 83.6953 269.266Z" fill="white"/>
<path d="M179.583 181.229H218.369V219.723C226.279 193.347 239.037 176.239 262.002 177.665V234.337H259.961C234.19 234.337 218.369 256.079 218.369 301.702V372.275H179.583V181.229Z" fill="white"/>
<path d="M281.707 184.26C281.707 184.26 284.5 197.555 301 197.555C317.5 197.555 320.492 183.402 320.492 183.402V372.277H281.707V184.26Z" fill="white"/>
<path d="M320 166.5C320 177.27 311.27 186 300.5 186C289.73 186 281 177.27 281 166.5C281 155.73 289.73 147 300.5 147C311.27 147 320 155.73 320 166.5Z" fill="white"/>
<path d="M345.467 277.108V276.396C345.467 212.596 375.322 177.666 407.728 177.666C428.397 177.666 441.155 190.853 450.342 206.18V112.082H489.127V372.255H450.342V344.811C440.9 362.633 427.887 375.82 407.728 375.82C375.832 375.82 345.467 340.89 345.467 277.089V277.108ZM450.837 277.108V276.396C450.837 244.674 435.782 223.645 417.666 223.645C399.549 223.645 384.239 244.318 384.239 276.396V277.108C384.239 308.831 399.549 329.86 417.666 329.86C435.782 329.86 450.837 308.831 450.837 277.108Z" fill="white"/>
<path d="M521.552 410.041L534.821 369.408C548.855 380.457 562.89 386.873 581.007 386.873C607.544 386.873 620.047 369.051 620.047 334.834V325.567C608.565 344.815 596.062 356.577 575.393 356.577C543.497 356.577 514.663 324.142 514.663 267.469V266.757C514.663 209.727 544.007 177.648 575.393 177.648C596.571 177.648 609.075 190.124 619.537 206.163V181.213H658.323V329.131C658.323 363.348 652.454 388.299 640.971 404.338C628.212 422.159 608.565 430 582.027 430C559.828 430 538.904 422.872 521.552 410.041ZM620.047 267.489V266.776C620.047 240.757 605.503 222.578 586.62 222.578C567.738 222.578 553.448 240.757 553.448 266.776V267.489C553.448 293.865 567.738 311.687 586.62 311.687C605.503 311.687 620.047 293.508 620.047 267.489Z" fill="white"/>
<path d="M683.639 277.824V277.112C683.639 222.577 711.452 177.668 751.258 177.668C796.933 177.668 817.857 227.212 817.857 281.389C817.857 285.666 817.602 290.656 817.347 295.646H722.169C725.997 320.24 738.245 333.071 755.596 333.071C768.61 333.071 778.051 327.368 788.768 313.467L810.967 340.913C798.21 363.011 779.837 376.556 755.086 376.556C714.004 376.556 683.639 336.279 683.639 277.824ZM780.078 261.785C777.782 237.548 767.575 221.152 751.245 221.152C734.913 221.152 724.707 237.191 721.645 261.785H780.078Z" fill="white"/>
<path d="M826.247 181.229H865.542L887.487 297.068L913.257 180.516H946.684L972.714 297.425L995.169 181.229H1033.7L991.085 373.701H956.125L929.845 256.435L903.054 373.701H868.354L826.247 181.229Z" fill="white"/>
<path d="M1040.66 317.388V316.676C1040.66 274.973 1063.37 255.727 1095.78 255.727C1109.56 255.727 1119.51 258.933 1129.21 263.568V260.36C1129.21 237.905 1119.25 225.43 1099.86 225.43C1085.06 225.43 1074.6 229.351 1062.09 235.765L1052.4 194.421C1067.45 185.153 1082.26 179.094 1105.47 179.094C1126.66 179.094 1141.96 186.935 1151.65 200.48C1161.87 214.737 1166.46 235.765 1166.46 261.429V372.278H1128.95V351.606C1119.51 366.22 1106.49 375.842 1087.61 375.842C1061.84 375.842 1040.66 355.169 1040.66 317.388ZM1129.71 304.914V295.29C1123.08 291.012 1114.4 288.161 1104.96 288.161C1088.37 288.161 1078.17 297.428 1078.17 314.536V315.25C1078.17 329.863 1086.85 338.418 1099.35 338.418C1117.47 338.418 1129.71 324.517 1129.71 304.914Z" fill="white"/>
<path d="M1298 180.855L1245.44 376.535C1234.98 415.385 1223.75 429.999 1200.53 429.999C1186.49 429.999 1180.03 424.197 1174.57 420.119L1186.68 383.663C1189.21 385.704 1191.11 386.812 1196.22 386.812C1202.85 386.812 1205.89 382.238 1209.2 372.614C1215.77 350.951 1217.48 326.992 1214.09 303.942C1199.33 203.706 1141.56 122.005 1077.65 74.976C973.777 -2.62663 845.035 5.31382 746.129 95.0152C721.165 117.015 698.214 143.331 677.22 172.381C717.068 110.54 766.386 59.8277 822.367 30.3431C954.463 -41.22 1118.06 16.7592 1206.49 173.073C1220.13 197.41 1231.61 224.24 1240.11 252.794L1257.68 180.855H1298Z" fill="white"/>
</svg>
